<svg fill="none" height="20" viewBox="0 0 20 20" width="20" xmlns="http://www.w3.org/2000/svg"><g fill="#212121"><path d="m8.76512 7.07608c-.15413-.09639-.34843-.10154-.50744-.01344-.15901.08811-.25768.25557-.25768.43736v5.15c0 .1841.10118.3533.26337.4405.1622.0871.35915.078.51266-.0236l3.99997-2.6484c.1418-.0939.2262-.2534.224-.42342-.0022-.17003-.0907-.32728-.2349-.41744z"/><path d="m4.5 3c-1.38071 0-2.5 1.11929-2.5 2.5v9c0 1.3807 1.11929 2.5 2.5 2.5h11c1.3807 0 2.5-1.1193 2.5-2.5v-9c0-1.38071-1.1193-2.5-2.5-2.5zm-1.5 2.5c0-.82843.67157-1.5 1.5-1.5h11c.8284 0 1.5.67157 1.5 1.5v9c0 .8284-.6716 1.5-1.5 1.5h-11c-.82843 0-1.5-.6716-1.5-1.5z"/></g></svg>